<svg width="151" height="74" viewBox="0 0 151 74" fill="none" xmlns="http://www.w3.org/2000/svg"><g clip-path="url(#a)"><path d="M150.656 74.77s-20.668-29.588-24.638-35.916c-3.337-5.242-7.767-9.397-11.105-14.703-2.416-3.771-4.832-7.48-6.731-11.57-2.186-4.73-3.683-6.968-10.587-9.397-2.589-.895-8.112-2.685-10.817-1.342-4.545 2.237-8.573 5.113-11.564 9.652-.69 1.023-1.151 2.237-1.094 3.516a9.172 9.172 0 0 0 .748 3.068c.173.448.46.895.633 1.407.576 1.981-.057 4.474 2.417 4.282.863-.064.748-.895 1.61-1.022 1.381-.192 2.475-.512 2.935-1.343 1.381-2.748 1.381-2.748 4.316-3.58.575-.191 3.164-.894 3.451-1.534 0 0 5.582 4.028 6.387 4.028.058 2.812 1.381 6.2 1.381 6.2S94.2 38.981 90.173 38.534c-4.027-.448-11.795.703-14.039 5.37-2.186 4.666-.403 5.37 3.394 4.474 3.798-.895 15.018-.895 16.801.64 1.784 1.534 15.823 5.944 17.031 5.88 8.228 21.99 8.63 25.186 8.63 25.186l28.666-5.313Z" fill="#FFC500"/><path d="M98.918 11.686c-2.819-.703-5.983-1.982-8.86-2.174-2.129-.127-3.97 1.087-5.811 2.302-2.531 1.726-4.315 3.388-5.409 6.584-.23.64-.402 1.342-.402 2.045 0 .704.287 1.407.748 1.854.748.64 1.84.384 2.589-.256.748-.639 1.15-1.598 1.438-2.556.115-.32.23-.64.46-.767.173-.128.346-.128.518-.192 2.014-.256 3.682-1.47 5.524-2.11.115-.064.288-.064.403-.064.172 0 .345.192.517.32a14.459 14.459 0 0 0 5.984 3.452c1.611 10.803 6.444 21.095 14.615 27.231" stroke="#3D3935" stroke-width="2" stroke-miterlimit="10" stroke-linecap="round" stroke-linejoin="round"/><path d="M100.069 8.298c-3.337-.831-6.962-3.068-10.414-3.58-3.74-.575-11.22 5.945-11.794 7.288-1.036 2.3-2.014 4.922-2.245 7.479-.115 1.086-.172 2.557.518 3.451.92 1.279 2.474 1.023 3.28-.191" stroke="#3D3935" stroke-width="2" stroke-miterlimit="10" stroke-linecap="round" stroke-linejoin="round"/><path d="M114.913 24.407c-2.244-3.772-4.373-7.607-6.444-11.443-1.438-2.62-2.532-6.073-5.408-7.479-4.373-2.11-7.077-2.813-10.472-3.835-4.776-1.47-7.652 1.022-11.334 3.58-3.165 2.237-5.236 4.666-7.077 8.31m40.735 41.23c-.518.064-9.953-1.15-18.641-5.88-4.258-1.151-8.746-1.727-13.119-1.215-1.38.192-2.819.384-4.257.64-2.072.383-3.74.319-3.453-2.622.173-1.917 1.324-3.515 2.59-4.602 3.912-3.58 9.435-2.302 14.096-2.94" stroke="#3D3935" stroke-width="2" stroke-miterlimit="10" stroke-linecap="round" stroke-linejoin="round"/><path d="M.345 74s20.323-28.818 24.293-35.147c3.337-5.241 7.768-9.396 11.105-14.702 2.416-3.771 4.833-7.48 6.731-11.57 2.187-4.73 3.683-6.968 10.587-9.397 2.59-.895 8.113-2.685 10.817-1.342 3.222 1.534 9.205 4.474 9.896 10.547.46 2.43.863 5.05.805 7.543 0 .703.116 2.301-.46 2.813-.46.447-1.438.064-2.013-.064-1.554-.32-2.878-.895-3.913-2.174-1.611-1.981-7.307-3.707-7.595-4.347 0 0-6.214 4.028-7.02 4.028-.057 2.812-.805 6.264-.805 6.264s3.798 12.465 7.825 12.018c4.028-.447 11.795.703 14.039 5.37 2.186 4.666.403 5.37-3.395 4.474-3.797-.895-15.017-.895-16.8.64-1.784 1.534-15.823 5.944-17.03 5.88-8.229 21.99-8.631 25.186-8.631 25.186L.345 74Z" fill="#46A0DE"/><path d="M36.145 45.757c8.17-3.068 16.456-14.255 17.434-25.633-.057.32 6.271-3.644 6.56-3.708 2.013-.32 4.66 2.302 6.904 2.621.23 0 1.38 1.982 1.668 2.238.748.767 1.611 1.342 2.647 1.47.287 0 .633 0 .92-.192 2.302-1.598-1.093-6.52-2.128-7.927-.864-1.15-2.417-2.173-3.625-2.94-1.842-1.278-3.683-2.493-5.812-2.301-2.876.191-6.04 1.47-8.86 2.173" stroke="#3D3935" stroke-width="2" stroke-miterlimit="10" stroke-linecap="round" stroke-linejoin="round"/><path d="M50.587 8.298C53.924 7.467 57.549 5.23 61 4.718c3.74-.575 11.22 5.945 11.795 7.288.69 1.534 4.66 11.186.345 11.186 0 0-.345 0-.92-.447" stroke="#3D3935" stroke-width="2" stroke-miterlimit="10" stroke-linecap="round" stroke-linejoin="round"/><path d="M35.742 24.407c2.244-3.772 4.373-7.607 6.444-11.443 1.439-2.62 2.532-6.073 5.409-7.479 4.372-2.11 7.077-2.813 10.471-3.835C62.842.18 65.72 2.672 69.401 5.23c3.337 2.365 4.373 4.666 4.603 9.46M35.742 54.77c.518.064 9.954-1.15 18.642-5.88 4.258-1.151 8.745-1.727 13.118-1.215 1.381.192 2.82.383 4.258.639 1.266.256 2.186.64 3.164-.575 1.899-2.365-.632-5.178-2.301-6.712-3.913-3.58-9.436-2.302-14.096-2.94" stroke="#3D3935" stroke-width="2" stroke-miterlimit="10" stroke-linecap="round" stroke-linejoin="round"/></g><defs><clipPath id="a"><path fill="#fff" d="M0 0h151v74H0z"/></clipPath></defs></svg>