<svg width="195" height="70" viewBox="0 0 195 70" fill="none" xmlns="http://www.w3.org/2000/svg"><g filter="url(#a)" fill-rule="evenodd" clip-rule="evenodd"><path d="M56.361 26.151c-.716 3.232-1.424 6.463-2.142 9.695-1.452-1.891-2.772-3.888-4.164-5.822.614-2.525 1.167-5.066 1.729-7.606.422-1.954.651-4.047.013-5.982-1.137-3.206-4.775-5.175-7.991-4.371-2.788.612-5.058 2.478-7.481 3.902-6.313 3.76-13.06 6.644-19.65 9.825.555-.981 1.492-1.628 2.267-2.41 4.796-4.517 10.11-8.399 15.329-12.377 3.14-2.372 6.78-4.432 10.777-4.462 3.882-.197 7.712 1.787 10.08 4.912 1.653 2.225 2.386 5.075 2.291 7.856.043 2.328-.57 4.588-1.058 6.84ZM9.778 51.175c1.116 3.33 4.948 5.317 8.231 4.395 2.62-.603 4.748-2.375 7.034-3.715C31.428 47.983 38.31 45.1 45 41.858c-3.538 3.972-7.785 7.19-11.937 10.446-3.88 2.835-7.482 6.25-12.008 7.984-3.292 1.184-7.119 1.27-10.252-.44-3.33-1.616-5.891-4.909-6.435-8.682-.429-2.39-.201-4.846.328-7.199.888-4.053 1.796-8.097 2.675-12.15a185.778 185.778 0 0 1 4.164 5.872c-.624 2.506-1.15 5.037-1.717 7.56-.435 1.933-.711 4.011-.04 5.926Z" fill="#2B5AE1"/><path d="M56.102 53.908c-1.531 3.347-4.544 6.029-8.142 6.717-4.09.956-8.167-.495-12.142-1.349-2.364-.554-4.734-1.086-7.095-1.654 1.779-1.516 3.75-2.776 5.569-4.24 2.738.607 5.455 1.313 8.2 1.9 2.172.429 4.618.465 6.513-.86 2.2-1.59 3.476-4.531 2.909-7.256-.32-1.81-1.176-3.45-2.127-4.988-4.535-7.262-7.785-15.245-11.252-23.066 3.832 3.7 7.027 8.014 10.199 12.3 2.529 3.681 5.563 7.078 7.329 11.242 1.49 3.531 1.782 7.757.04 11.254ZM18.744 11.964c-2.158-.41-4.598-.476-6.468.878-1.858 1.343-3.083 3.656-2.976 6.007-.018 2.567 1.328 4.85 2.638 6.942 4.134 6.677 7.064 14.007 10.336 21.138.185.44.302.906.414 1.373-3.865-4.248-7.5-8.712-10.815-13.421-2.57-3.647-5.576-7.107-7.067-11.404-1.172-3.384-1.133-7.303.561-10.497 1.334-2.697 3.622-4.93 6.44-5.914 2.836-1.04 5.949-.87 8.85-.208 3.965.924 7.935 1.837 11.898 2.771-1.8 1.51-3.741 2.834-5.605 4.257-2.732-.658-5.463-1.327-8.206-1.922Z" fill="#E63A28"/></g><path d="M80.28 51.2c.784 0 1.395.215 1.834.644.448.42.672 1.008.672 1.764 0 .392-.084.765-.252 1.12a2.153 2.153 0 0 1-.742.868c-.327.215-.733.336-1.218.364l-.056-.28c.345 0 .681.051 1.008.154.336.093.635.247.896.462.261.215.471.485.63.812.159.317.238.705.238 1.162 0 .485-.084.905-.252 1.26a2.188 2.188 0 0 1-.658.84 2.7 2.7 0 0 1-.938.476 3.956 3.956 0 0 1-1.106.154H76.57a.403.403 0 0 1-.294-.126.403.403 0 0 1-.126-.294v-8.96c0-.112.042-.21.126-.294a.403.403 0 0 1 .294-.126h3.71Zm-.112.826h-3.29l.168-.252v3.962l-.154-.21h3.276c.485-.01.891-.168 1.218-.476.336-.308.504-.765.504-1.372 0-.513-.15-.915-.448-1.204-.299-.299-.723-.448-1.274-.448Zm.098 4.34h-3.29l.07-.084V60.3l-.084-.126h3.332c.597 0 1.097-.15 1.498-.448.401-.308.602-.793.602-1.456 0-.467-.098-.84-.294-1.12a1.624 1.624 0 0 0-.784-.602 2.992 2.992 0 0 0-1.05-.182Zm10.281-2.478c.121 0 .22.042.294.126a.403.403 0 0 1 .126.294v3.948c0 .924-.261 1.629-.784 2.114-.523.485-1.227.728-2.114.728-.877 0-1.577-.243-2.1-.728-.513-.485-.77-1.19-.77-2.114v-3.948c0-.112.038-.21.112-.294a.419.419 0 0 1 .308-.126c.121 0 .22.042.294.126a.403.403 0 0 1 .126.294v3.948c0 .672.177 1.185.532 1.54.364.345.864.518 1.498.518.644 0 1.148-.173 1.512-.518.364-.355.546-.868.546-1.54v-3.948c0-.112.038-.21.112-.294a.391.391 0 0 1 .308-.126Zm8.097-.168c.121 0 .22.042.294.126a.403.403 0 0 1 .126.294v6.174c0 .756-.15 1.39-.448 1.904-.299.523-.7.915-1.204 1.176-.504.27-1.078.406-1.722.406-.401 0-.775-.047-1.12-.14a2.719 2.719 0 0 1-.826-.336.69.69 0 0 1-.252-.238.3.3 0 0 1-.014-.294c.047-.13.117-.22.21-.266a.393.393 0 0 1 .308.014c.159.084.387.187.686.308.299.121.64.182 1.022.182.513 0 .957-.107 1.33-.322.382-.215.676-.527.882-.938.205-.401.308-.882.308-1.442V59.32l.098.336c-.14.29-.34.546-.602.77a2.891 2.891 0 0 1-.882.532 2.992 2.992 0 0 1-1.05.182c-.56 0-1.027-.112-1.4-.336a2.126 2.126 0 0 1-.812-.952c-.177-.401-.266-.873-.266-1.414V54.14c0-.112.037-.21.112-.294a.391.391 0 0 1 .308-.126c.121 0 .22.042.294.126a.403.403 0 0 1 .126.294v4.172c0 .653.14 1.157.42 1.512.29.355.756.532 1.4.532.401 0 .77-.093 1.106-.28a2.57 2.57 0 0 0 .826-.756c.215-.317.322-.653.322-1.008V54.14c0-.112.037-.21.112-.294a.419.419 0 0 1 .308-.126Zm3.883 7.392c0 .252-.075.495-.224.728a1.938 1.938 0 0 1-.546.588c-.215.159-.425.238-.63.238a.42.42 0 0 1-.224-.07c-.065-.047-.098-.135-.098-.266 0-.13.042-.205.126-.224a.892.892 0 0 0 .336-.126.945.945 0 0 0 .364-.28.635.635 0 0 0 .126-.392c0-.121-.037-.215-.112-.28a.324.324 0 0 0-.238-.098.71.71 0 0 0-.378.112.97.97 0 0 1-.126-.154.31.31 0 0 1-.042-.21.588.588 0 0 1 .252-.406.876.876 0 0 1 .546-.182c.252 0 .457.103.616.308.168.205.252.443.252.714Zm8.621.028c-.71.01-1.326-.103-1.848-.336-.523-.233-1.022-.583-1.498-1.05a.596.596 0 0 1-.126-.14.45.45 0 0 1 .084-.504.428.428 0 0 1 .308-.14.43.43 0 0 1 .308.14c.364.392.774.69 1.232.896.466.205.966.308 1.498.308.448 0 .844-.07 1.19-.21.354-.14.634-.34.84-.602.205-.261.308-.565.308-.91 0-.43-.117-.775-.35-1.036a2.558 2.558 0 0 0-.924-.658 9.635 9.635 0 0 0-1.274-.476 11.45 11.45 0 0 1-1.092-.378 4.396 4.396 0 0 1-.924-.532 2.225 2.225 0 0 1-.63-.784c-.15-.308-.224-.681-.224-1.12 0-.495.13-.933.392-1.316.261-.383.63-.681 1.106-.896.485-.224 1.045-.336 1.68-.336.55 0 1.078.093 1.582.28.513.187.919.462 1.218.826.14.15.21.285.21.406 0 .093-.047.187-.14.28a.43.43 0 0 1-.308.14.323.323 0 0 1-.238-.098 2.363 2.363 0 0 0-.602-.518 2.928 2.928 0 0 0-.812-.364 3.253 3.253 0 0 0-.91-.126c-.439 0-.836.07-1.19.21-.346.13-.621.322-.826.574a1.438 1.438 0 0 0-.294.91c0 .392.112.714.336.966.224.252.518.462.882.63.364.159.751.308 1.162.448.401.112.784.243 1.148.392.373.14.7.317.98.532.289.215.513.485.672.812.168.327.252.737.252 1.232 0 .476-.136.905-.406 1.288a2.795 2.795 0 0 1-1.12.91c-.467.224-1.018.34-1.652.35Zm8.323 0c-.719 0-1.353-.154-1.904-.462a3.285 3.285 0 0 1-1.288-1.288c-.308-.55-.462-1.195-.462-1.932 0-.793.154-1.47.462-2.03.317-.56.723-.99 1.218-1.288a3.013 3.013 0 0 1 1.596-.462c.411 0 .807.075 1.19.224.392.14.737.355 1.036.644.308.28.551.625.728 1.036.187.41.289.887.308 1.428a.429.429 0 0 1-.434.406h-5.614l-.168-.756h5.516l-.182.168v-.28a2.04 2.04 0 0 0-.42-1.12 2.377 2.377 0 0 0-.882-.7 2.553 2.553 0 0 0-1.078-.238c-.28 0-.569.056-.868.168-.289.112-.555.29-.798.532a2.668 2.668 0 0 0-.574.91c-.149.364-.224.798-.224 1.302 0 .55.112 1.05.336 1.498.224.448.546.803.966 1.064.429.261.938.392 1.526.392a2.528 2.528 0 0 0 1.568-.504c.196-.159.359-.322.49-.49a.487.487 0 0 1 .308-.126c.093 0 .173.037.238.112a.347.347 0 0 1 .112.252c0 .112-.047.21-.14.294-.28.336-.644.63-1.092.882a3.036 3.036 0 0 1-1.47.364Zm5.746-.56c0 .112-.042.21-.126.294a.403.403 0 0 1-.294.126.42.42 0 0 1-.308-.126.427.427 0 0 1-.112-.294v-9.52c0-.112.042-.21.126-.294a.403.403 0 0 1 .294-.126c.121 0 .219.042.294.126a.403.403 0 0 1 .126.294v9.52Zm3.367 0c0 .112-.042.21-.126.294a.403.403 0 0 1-.294.126.418.418 0 0 1-.308-.126.427.427 0 0 1-.112-.294v-9.52c0-.112.042-.21.126-.294a.403.403 0 0 1 .294-.126c.121 0 .219.042.294.126a.403.403 0 0 1 .126.294v9.52Zm15.356-4.48c0 .737-.116 1.414-.35 2.03a4.78 4.78 0 0 1-.966 1.596c-.42.448-.919.798-1.498 1.05a4.732 4.732 0 0 1-1.876.364 4.84 4.84 0 0 1-1.89-.364 4.523 4.523 0 0 1-1.484-1.05 4.984 4.984 0 0 1-.98-1.596 5.9 5.9 0 0 1-.336-2.03c0-.737.112-1.41.336-2.016a4.79 4.79 0 0 1 .98-1.596c.42-.457.915-.807 1.484-1.05a4.684 4.684 0 0 1 1.89-.378 4.58 4.58 0 0 1 1.876.378 4.228 4.228 0 0 1 1.498 1.05c.42.448.742.98.966 1.596.234.607.35 1.279.35 2.016Zm-.896 0c0-.83-.163-1.559-.49-2.184a3.597 3.597 0 0 0-1.33-1.484c-.569-.355-1.227-.532-1.974-.532-.737 0-1.395.177-1.974.532a3.705 3.705 0 0 0-1.344 1.484c-.317.625-.476 1.353-.476 2.184 0 .83.159 1.563.476 2.198a3.728 3.728 0 0 0 1.344 1.47c.579.355 1.237.532 1.974.532.747 0 1.405-.177 1.974-.532a3.617 3.617 0 0 0 1.33-1.47c.327-.635.49-1.367.49-2.198Zm3.229 4.9a.39.39 0 0 1-.308-.126.427.427 0 0 1-.112-.294v-6.272c0-.112.037-.21.112-.294a.42.42 0 0 1 .308-.126c.121 0 .219.042.294.126a.403.403 0 0 1 .126.294v2.1l-.21.042a3.245 3.245 0 0 1 .798-1.862c.233-.27.509-.49.826-.658a2.354 2.354 0 0 1 1.092-.252c.168 0 .331.037.49.112.159.065.238.177.238.336 0 .14-.037.247-.112.322a.363.363 0 0 1-.266.112.686.686 0 0 1-.28-.07.851.851 0 0 0-.378-.07 1.5 1.5 0 0 0-.784.238 2.6 2.6 0 0 0-.714.616 3.324 3.324 0 0 0-.518.882c-.121.317-.182.64-.182.966v3.458c0 .112-.042.21-.126.294a.403.403 0 0 1-.294.126Zm9.761 0a.503.503 0 0 1-.35-.126.403.403 0 0 1-.126-.294v-8.96c0-.112.042-.21.126-.294a.403.403 0 0 1 .294-.126h3.78a2.89 2.89 0 0 1 1.428.35c.42.224.747.537.98.938.243.401.364.854.364 1.358 0 .41-.075.789-.224 1.134a2.49 2.49 0 0 1-.63.882 2.682 2.682 0 0 1-.91.518l-.49-.154c.345.028.667.14.966.336a2 2 0 0 1 .714.784c.187.327.285.723.294 1.19.009.401.028.714.056.938.037.224.089.392.154.504a.76.76 0 0 0 .252.266.389.389 0 0 1 .182.238c.037.103.028.2-.028.294a.363.363 0 0 1-.168.168.497.497 0 0 1-.434-.014 1.657 1.657 0 0 1-.406-.35c-.131-.159-.243-.392-.336-.7-.084-.308-.126-.737-.126-1.288 0-.364-.061-.663-.182-.896a1.267 1.267 0 0 0-.448-.532 1.525 1.525 0 0 0-.602-.266 2.442 2.442 0 0 0-.616-.084h-3.262l.154-.196v3.962c0 .112-.037.21-.112.294a.375.375 0 0 1-.294.126Zm.252-4.956h3.514c.317-.028.616-.13.896-.308.28-.187.504-.439.672-.756.177-.317.266-.686.266-1.106 0-.532-.182-.97-.546-1.316-.355-.355-.821-.532-1.4-.532h-3.346l.098-.196v4.41l-.154-.196Zm11.746 5.096c-.718 0-1.353-.154-1.904-.462a3.291 3.291 0 0 1-1.288-1.288c-.308-.55-.462-1.195-.462-1.932 0-.793.154-1.47.462-2.03.318-.56.724-.99 1.218-1.288a3.013 3.013 0 0 1 1.596-.462c.411 0 .808.075 1.19.224.392.14.738.355 1.036.644.308.28.551.625.728 1.036.187.41.29.887.308 1.428a.429.429 0 0 1-.434.406h-5.614l-.168-.756h5.516l-.182.168v-.28a2.04 2.04 0 0 0-.42-1.12 2.361 2.361 0 0 0-.882-.7 2.55 2.55 0 0 0-1.078-.238c-.28 0-.569.056-.868.168-.289.112-.555.29-.798.532a2.683 2.683 0 0 0-.574.91c-.149.364-.224.798-.224 1.302 0 .55.112 1.05.336 1.498.224.448.546.803.966 1.064.43.261.938.392 1.526.392.327 0 .621-.047.882-.14.262-.093.49-.215.686-.364a3.01 3.01 0 0 0 .49-.49.49.49 0 0 1 .308-.126c.094 0 .173.037.238.112a.347.347 0 0 1 .112.252c0 .112-.046.21-.14.294-.28.336-.644.63-1.092.882a3.036 3.036 0 0 1-1.47.364Zm8.196-7.462c.616 0 1.106.126 1.47.378.374.243.64.579.798 1.008.168.42.252.887.252 1.4v4.116c0 .112-.042.21-.126.294a.403.403 0 0 1-.294.126.392.392 0 0 1-.308-.126.432.432 0 0 1-.112-.294v-4.074c0-.373-.06-.714-.182-1.022a1.56 1.56 0 0 0-.602-.742c-.27-.187-.63-.28-1.078-.28a2.48 2.48 0 0 0-1.148.28 2.493 2.493 0 0 0-.868.742 1.698 1.698 0 0 0-.336 1.022v4.074c0 .112-.042.21-.126.294a.403.403 0 0 1-.294.126.392.392 0 0 1-.308-.126.432.432 0 0 1-.112-.294v-6.272c0-.112.038-.21.112-.294a.42.42 0 0 1 .308-.126c.122 0 .22.042.294.126a.403.403 0 0 1 .126.294v1.176l-.322.504c.019-.299.112-.583.28-.854.178-.28.402-.527.672-.742.271-.224.57-.397.896-.518.336-.13.672-.196 1.008-.196Zm4.398.196h3.262c.112 0 .206.042.28.126a.379.379 0 0 1 .112.28.362.362 0 0 1-.112.266.379.379 0 0 1-.28.112h-3.262a.429.429 0 0 1-.294-.112.415.415 0 0 1-.112-.28c0-.112.038-.205.112-.28a.429.429 0 0 1 .294-.112Zm1.442-1.974c.122 0 .22.042.294.126a.403.403 0 0 1 .126.294v7.028c0 .261.033.457.098.588a.59.59 0 0 0 .28.266c.112.037.224.056.336.056.075 0 .14-.01.196-.028a.532.532 0 0 1 .21-.042c.084 0 .154.033.21.098a.34.34 0 0 1 .098.252c0 .13-.074.243-.224.336a1.065 1.065 0 0 1-.532.126 7.88 7.88 0 0 1-.378-.014 1.638 1.638 0 0 1-.518-.154c-.177-.093-.326-.252-.448-.476-.112-.224-.168-.546-.168-.966v-7.07c0-.112.038-.21.112-.294a.42.42 0 0 1 .308-.126ZM79.306 36c-.936 0-1.656-.252-2.16-.756-.504-.504-.756-1.224-.756-2.16V13.536c0-.936.252-1.656.756-2.16.504-.504 1.224-.756 2.16-.756h7.02c4.344 0 7.692 1.104 10.044 3.312 2.376 2.184 3.564 5.304 3.564 9.36 0 2.04-.312 3.852-.936 5.436-.6 1.56-1.476 2.88-2.628 3.96-1.152 1.08-2.568 1.908-4.248 2.484-1.68.552-3.612.828-5.796.828h-7.02Zm2.664-4.572h4.032c1.368 0 2.556-.168 3.564-.504 1.008-.336 1.848-.84 2.52-1.512.672-.672 1.176-1.512 1.512-2.52.336-1.032.504-2.232.504-3.6 0-2.736-.684-4.764-2.052-6.084-1.344-1.344-3.36-2.016-6.048-2.016H81.97v16.236Zm29.427 4.968c-1.896 0-3.552-.372-4.968-1.116a7.863 7.863 0 0 1-3.24-3.204c-.768-1.392-1.152-3.036-1.152-4.932 0-1.416.216-2.688.648-3.816.432-1.128 1.056-2.088 1.872-2.88a8.118 8.118 0 0 1 2.988-1.836c1.152-.432 2.436-.648 3.852-.648 1.896 0 3.54.372 4.932 1.116 1.416.744 2.508 1.8 3.276 3.168.792 1.368 1.188 3 1.188 4.896 0 1.44-.228 2.724-.684 3.852a8.231 8.231 0 0 1-1.872 2.916c-.816.816-1.812 1.44-2.988 1.872-1.152.408-2.436.612-3.852.612Zm0-4.068c.792 0 1.476-.192 2.052-.576.576-.384 1.032-.948 1.368-1.692.336-.768.504-1.74.504-2.916 0-1.752-.36-3.036-1.08-3.852-.72-.84-1.668-1.26-2.844-1.26-.768 0-1.452.18-2.052.54-.576.36-1.032.924-1.368 1.692-.312.744-.468 1.704-.468 2.88 0 1.752.36 3.06 1.08 3.924.72.84 1.656 1.26 2.808 1.26Zm14.611 3.996c-.912 0-1.608-.24-2.088-.72s-.72-1.164-.72-2.052v-12.78c0-.888.228-1.56.684-2.016.48-.48 1.14-.72 1.98-.72.864 0 1.524.24 1.98.72.456.456.684 1.128.684 2.016v1.872h-.36c.288-1.44.924-2.556 1.908-3.348.984-.792 2.256-1.236 3.816-1.332.6-.048 1.056.108 1.368.468.336.336.516.9.54 1.692.048.744-.108 1.332-.468 1.764-.336.432-.912.696-1.728.792l-.828.072c-1.368.12-2.388.516-3.06 1.188-.648.672-.972 1.644-.972 2.916v6.696c0 .888-.24 1.572-.72 2.052-.456.48-1.128.72-2.016.72Zm19.992.072c-2.088 0-3.888-.372-5.4-1.116-1.488-.768-2.64-1.836-3.456-3.204-.792-1.392-1.188-3.024-1.188-4.896 0-1.824.384-3.42 1.152-4.788a8.16 8.16 0 0 1 3.204-3.24c1.392-.792 2.964-1.188 4.716-1.188 1.272 0 2.424.216 3.456.648a7.277 7.277 0 0 1 2.664 1.8c.744.768 1.308 1.716 1.692 2.844.384 1.104.576 2.34.576 3.708 0 .456-.144.804-.432 1.044-.288.216-.708.324-1.26.324H140.42v-2.808h9.072l-.576.504c0-.984-.144-1.8-.432-2.448-.288-.672-.708-1.176-1.26-1.512-.528-.336-1.188-.504-1.98-.504-.888 0-1.644.204-2.268.612-.624.408-1.104.996-1.44 1.764-.336.768-.504 1.692-.504 2.772V27c0 1.824.42 3.168 1.26 4.032.864.864 2.136 1.296 3.816 1.296.576 0 1.236-.072 1.98-.216a8.524 8.524 0 0 0 2.088-.684c.552-.264 1.044-.348 1.476-.252.432.072.768.264 1.008.576.24.312.372.672.396 1.08.048.408-.036.816-.252 1.224-.216.384-.576.708-1.08.972-.816.456-1.74.792-2.772 1.008-1.008.24-1.992.36-2.952.36Zm12.485-.072c-.888 0-1.572-.24-2.052-.72-.456-.48-.684-1.164-.684-2.052v-12.78c0-.888.228-1.56.684-2.016.48-.48 1.14-.72 1.98-.72.864 0 1.524.24 1.98.72.456.456.684 1.128.684 2.016v2.304l-.396-1.44a6.03 6.03 0 0 1 2.232-2.664c1.008-.672 2.196-1.008 3.564-1.008 1.368 0 2.508.324 3.42.972.912.648 1.56 1.644 1.944 2.988h-.504c.528-1.224 1.332-2.184 2.412-2.88 1.104-.72 2.364-1.08 3.78-1.08 1.368 0 2.484.276 3.348.828.888.528 1.548 1.344 1.98 2.448.432 1.08.648 2.46.648 4.14v8.172c0 .888-.24 1.572-.72 2.052-.456.48-1.116.72-1.98.72-.888 0-1.572-.24-2.052-.72-.456-.48-.684-1.164-.684-2.052V25.56c0-1.176-.192-2.028-.576-2.556-.36-.552-.984-.828-1.872-.828-1.032 0-1.836.36-2.412 1.08-.576.72-.864 1.74-.864 3.06v7.236c0 .888-.24 1.572-.72 2.052-.456.48-1.116.72-1.98.72-.864 0-1.536-.24-2.016-.72s-.72-1.164-.72-2.052V25.56c0-1.176-.192-2.028-.576-2.556-.36-.552-.984-.828-1.872-.828-1.032 0-1.836.36-2.412 1.08-.576.72-.864 1.74-.864 3.06v7.236c0 1.848-.9 2.772-2.7 2.772Zm31.021-.036c-.888 0-1.572-.252-2.052-.756-.456-.528-.684-1.26-.684-2.196V21.024c0-.96.228-1.692.684-2.196.48-.528 1.164-.792 2.052-.792.864 0 1.524.264 1.98.792.48.504.72 1.236.72 2.196v12.312c0 .936-.228 1.668-.684 2.196-.456.504-1.128.756-2.016.756Zm0-21.204c-1.008 0-1.788-.228-2.34-.684-.528-.48-.792-1.152-.792-2.016 0-.888.264-1.56.792-2.016.552-.48 1.332-.72 2.34-.72 1.008 0 1.776.24 2.304.72.528.456.792 1.128.792 2.016 0 .864-.264 1.536-.792 2.016-.528.456-1.296.684-2.304.684Z" fill="#222"/><defs><filter id="a" x="0" y="6.324" width="61.428" height="62.833" filterUnits="userSpaceOnUse" color-interpolation-filters="sRGB"><feFlood flood-opacity="0" result="BackgroundImageFix"/><feColorMatrix in="SourceAlpha" values="0 0 0 0 0 0 0 0 0 0 0 0 0 0 0 0 0 0 127 0" result="hardAlpha"/><feOffset dy="4"/><feGaussianBlur stdDeviation="2"/><feComposite in2="hardAlpha" operator="out"/><feColorMatrix values="0 0 0 0 0 0 0 0 0 0 0 0 0 0 0 0 0 0 0.25 0"/><feBlend in2="BackgroundImageFix" result="effect1_dropShadow_4_1027"/><feBlend in="SourceGraphic" in2="effect1_dropShadow_4_1027" result="shape"/></filter></defs></svg>