<svg width="20" height="23" viewBox="0 0 20 23" fill="none" xmlns="http://www.w3.org/2000/svg"><path fill-rule="evenodd" clip-rule="evenodd" d="M9.019 0c4.973 0 9.02 4.653 9.02 10.373 0 2.027-.509 3.918-1.386 5.518l2.76 3.175c.782.899.782 2.359 0 3.26-.783.899-2.052.899-2.834 0l-2.76-3.175c-1.392 1.01-3.037 1.594-4.8 1.594C4.045 20.745 0 16.092 0 10.373 0 4.653 4.045 0 9.019 0Zm0 18.44c3.868 0 7.016-3.62 7.016-8.067 0-4.45-3.148-8.068-7.016-8.068-3.869 0-7.015 3.618-7.015 8.068 0 4.448 3.146 8.067 7.015 8.067Z" fill="#E63A28"/></svg>