<svg width="195" height="70" viewBox="0 0 195 70" fill="none" xmlns="http://www.w3.org/2000/svg">
<g filter="url(#filter0_d_4_1027)">
<path fill-rule="evenodd" clip-rule="evenodd" d="M56.3614 26.1512C55.645 29.3827 54.9365 32.6142 54.2192 35.8457C52.7666 33.9547 51.4475 31.9581 50.0553 30.0235C50.6688 27.4989 51.2219 24.958 51.784 22.4181C52.2065 20.4641 52.4351 18.3711 51.7968 16.4365C50.6599 13.2304 47.0215 11.2612 43.8056 12.0645C41.0181 12.6769 38.7482 14.5425 36.3249 15.9673C30.0118 19.7269 23.2644 22.611 16.6743 25.7917C17.2304 24.8107 18.1674 24.1638 18.9422 23.3828C23.7384 18.8647 29.052 14.9832 34.2707 11.0053C37.4104 8.63299 41.0518 6.57345 45.0484 6.54298C48.9302 6.34597 52.7596 8.33035 55.1275 11.4552C56.781 13.6803 57.5142 16.5299 57.4192 19.3115C57.4618 21.6391 56.8483 23.8987 56.3614 26.1512ZM9.77838 51.1754C10.8936 54.5044 14.7259 56.4918 18.0091 55.5697C20.6293 54.9674 22.7568 53.1953 25.0425 51.8548C31.4288 47.9825 38.3098 45.1014 44.9999 41.8577C41.4624 45.8295 37.2155 49.0478 33.0635 52.3037C29.1826 55.1391 25.5808 58.5544 21.0548 60.2879C17.7627 61.472 13.9363 61.5574 10.8025 59.8482C7.47382 58.2324 4.91198 54.939 4.36775 51.1662C3.93929 48.7756 4.16688 46.32 4.69627 43.967C5.58386 39.914 6.49222 35.87 7.37091 31.817C8.79283 33.7455 10.1851 35.7015 11.5348 37.6889C10.9114 40.1953 10.3859 42.726 9.81796 45.2486C9.38258 47.1822 9.1065 49.2601 9.77838 51.1754Z" fill="#2B5AE1"/>
<path fill-rule="evenodd" clip-rule="evenodd" d="M56.1024 53.9083C54.5706 57.2555 51.5576 59.9366 47.9597 60.6251C43.8691 61.5807 39.7933 60.1295 35.8175 59.2765C33.4536 58.722 31.0837 58.1898 28.7227 57.6221C30.5019 56.1059 32.473 54.8456 34.2917 53.3812C37.0296 53.9885 39.7468 54.6953 42.4917 55.2813C44.6637 55.7109 47.1098 55.7474 49.0047 54.4211C51.2043 52.8328 52.4808 49.8908 51.9138 47.166C51.5942 45.3563 50.7383 43.7162 49.7874 42.1777C45.2515 34.9155 42.0019 26.9332 38.5347 19.1115C42.367 22.8111 45.5622 27.1262 48.7335 31.4118C51.2627 35.0932 54.2965 38.4902 56.0628 42.6539C57.553 46.185 57.8449 50.4107 56.1024 53.9083ZM18.7435 11.964C16.5864 11.5538 14.1463 11.4877 12.2761 12.8425C10.4178 14.185 9.1928 16.4985 9.29967 18.8495C9.28186 21.4158 10.6276 23.6987 11.9377 25.7907C16.0719 32.468 19.0018 39.7982 22.2741 46.9294C22.4591 47.3681 22.5759 47.8353 22.6877 48.3024C18.8227 44.0544 15.1882 39.59 11.8734 34.8809C9.30264 31.2341 6.29651 27.7741 4.80631 23.4773C3.63375 20.0925 3.67333 16.1745 5.36736 12.9796C6.70122 10.2833 8.98896 8.05011 11.8071 7.06604C14.643 6.02612 17.756 6.19673 20.6562 6.85785C24.6222 7.782 28.5921 8.69498 32.5551 9.62929C30.7542 11.1394 28.8138 12.4627 26.9495 13.8855C24.2175 13.2284 21.4874 12.5591 18.7435 11.964Z" fill="#E63A28"/>
</g>
<path d="M80.28 51.2C81.064 51.2 81.6753 51.4147 82.114 51.844C82.562 52.264 82.786 52.852 82.786 53.608C82.786 54 82.702 54.3733 82.534 54.728C82.366 55.0827 82.1187 55.372 81.792 55.596C81.4653 55.8107 81.0593 55.932 80.574 55.96L80.518 55.68C80.8633 55.68 81.1993 55.7313 81.526 55.834C81.862 55.9273 82.1607 56.0813 82.422 56.296C82.6833 56.5107 82.8933 56.7813 83.052 57.108C83.2107 57.4253 83.29 57.8127 83.29 58.27C83.29 58.7553 83.206 59.1753 83.038 59.53C82.8793 59.8753 82.66 60.1553 82.38 60.37C82.1093 60.5847 81.7967 60.7433 81.442 60.846C81.0873 60.9487 80.7187 61 80.336 61H76.57C76.458 61 76.36 60.958 76.276 60.874C76.192 60.79 76.15 60.692 76.15 60.58V51.62C76.15 51.508 76.192 51.41 76.276 51.326C76.36 51.242 76.458 51.2 76.57 51.2H80.28ZM80.168 52.026H76.878L77.046 51.774V55.736L76.892 55.526H80.168C80.6533 55.5167 81.0593 55.358 81.386 55.05C81.722 54.742 81.89 54.2847 81.89 53.678C81.89 53.1647 81.7407 52.7633 81.442 52.474C81.1433 52.1753 80.7187 52.026 80.168 52.026ZM80.266 56.366H76.976L77.046 56.282V60.3L76.962 60.174H80.294C80.8913 60.174 81.3907 60.0247 81.792 59.726C82.1933 59.418 82.394 58.9327 82.394 58.27C82.394 57.8033 82.296 57.43 82.1 57.15C81.904 56.87 81.6427 56.6693 81.316 56.548C80.9893 56.4267 80.6393 56.366 80.266 56.366ZM90.5471 53.888C90.6685 53.888 90.7665 53.93 90.8411 54.014C90.9251 54.098 90.9671 54.196 90.9671 54.308V58.256C90.9671 59.18 90.7058 59.8847 90.1831 60.37C89.6605 60.8553 88.9558 61.098 88.0691 61.098C87.1918 61.098 86.4918 60.8553 85.9691 60.37C85.4558 59.8847 85.1991 59.18 85.1991 58.256V54.308C85.1991 54.196 85.2365 54.098 85.3111 54.014C85.3951 53.93 85.4978 53.888 85.6191 53.888C85.7405 53.888 85.8385 53.93 85.9131 54.014C85.9971 54.098 86.0391 54.196 86.0391 54.308V58.256C86.0391 58.928 86.2165 59.4413 86.5711 59.796C86.9351 60.1413 87.4345 60.314 88.0691 60.314C88.7131 60.314 89.2171 60.1413 89.5811 59.796C89.9451 59.4413 90.1271 58.928 90.1271 58.256V54.308C90.1271 54.196 90.1645 54.098 90.2391 54.014C90.3138 53.93 90.4165 53.888 90.5471 53.888ZM98.6438 53.72C98.7652 53.72 98.8632 53.762 98.9378 53.846C99.0218 53.93 99.0638 54.028 99.0638 54.14V60.314C99.0638 61.07 98.9145 61.7047 98.6158 62.218C98.3172 62.7407 97.9158 63.1327 97.4118 63.394C96.9078 63.6647 96.3338 63.8 95.6898 63.8C95.2885 63.8 94.9152 63.7533 94.5698 63.66C94.2338 63.576 93.9585 63.464 93.7438 63.324C93.6318 63.2587 93.5478 63.1793 93.4918 63.086C93.4358 62.9927 93.4312 62.8947 93.4778 62.792C93.5245 62.6613 93.5945 62.5727 93.6878 62.526C93.7905 62.4887 93.8932 62.4933 93.9958 62.54C94.1545 62.624 94.3832 62.7267 94.6818 62.848C94.9805 62.9693 95.3212 63.03 95.7038 63.03C96.2172 63.03 96.6605 62.9227 97.0338 62.708C97.4165 62.4933 97.7105 62.1807 97.9158 61.77C98.1212 61.3687 98.2238 60.888 98.2238 60.328V59.32L98.3218 59.656C98.1818 59.9453 97.9812 60.202 97.7198 60.426C97.4678 60.65 97.1738 60.8273 96.8378 60.958C96.5112 61.0793 96.1612 61.14 95.7878 61.14C95.2278 61.14 94.7612 61.028 94.3878 60.804C94.0238 60.5707 93.7532 60.2533 93.5758 59.852C93.3985 59.4507 93.3098 58.9793 93.3098 58.438V54.14C93.3098 54.028 93.3472 53.93 93.4218 53.846C93.4965 53.762 93.5992 53.72 93.7298 53.72C93.8512 53.72 93.9492 53.762 94.0238 53.846C94.1078 53.93 94.1498 54.028 94.1498 54.14V58.312C94.1498 58.9653 94.2898 59.4693 94.5698 59.824C94.8592 60.1787 95.3258 60.356 95.9698 60.356C96.3712 60.356 96.7398 60.2627 97.0758 60.076C97.4118 59.88 97.6872 59.628 97.9018 59.32C98.1165 59.0027 98.2238 58.6667 98.2238 58.312V54.14C98.2238 54.028 98.2612 53.93 98.3358 53.846C98.4198 53.762 98.5225 53.72 98.6438 53.72ZM102.527 61.112C102.527 61.364 102.452 61.6067 102.303 61.84C102.154 62.0827 101.972 62.2787 101.757 62.428C101.542 62.5867 101.332 62.666 101.127 62.666C101.052 62.666 100.978 62.6427 100.903 62.596C100.838 62.5493 100.805 62.4607 100.805 62.33C100.805 62.1993 100.847 62.1247 100.931 62.106C101.024 62.0967 101.136 62.0547 101.267 61.98C101.426 61.9053 101.547 61.812 101.631 61.7C101.715 61.588 101.757 61.4573 101.757 61.308C101.757 61.1867 101.72 61.0933 101.645 61.028C101.58 60.9627 101.5 60.93 101.407 60.93C101.342 60.93 101.276 60.9393 101.211 60.958C101.146 60.9767 101.085 61.0047 101.029 61.042C100.982 60.9953 100.94 60.944 100.903 60.888C100.866 60.832 100.852 60.762 100.861 60.678C100.88 60.5193 100.964 60.384 101.113 60.272C101.272 60.1507 101.454 60.09 101.659 60.09C101.911 60.09 102.116 60.1927 102.275 60.398C102.443 60.6033 102.527 60.8413 102.527 61.112ZM111.148 61.14C110.438 61.1493 109.822 61.0373 109.3 60.804C108.777 60.5707 108.278 60.2207 107.802 59.754C107.755 59.7167 107.713 59.67 107.676 59.614C107.648 59.558 107.634 59.4927 107.634 59.418C107.634 59.306 107.676 59.2033 107.76 59.11C107.853 59.0167 107.956 58.97 108.068 58.97C108.18 58.97 108.282 59.0167 108.376 59.11C108.74 59.502 109.15 59.8007 109.608 60.006C110.074 60.2113 110.574 60.314 111.106 60.314C111.554 60.314 111.95 60.244 112.296 60.104C112.65 59.964 112.93 59.7633 113.136 59.502C113.341 59.2407 113.444 58.9373 113.444 58.592C113.444 58.1627 113.327 57.8173 113.094 57.556C112.86 57.2853 112.552 57.066 112.17 56.898C111.787 56.7207 111.362 56.562 110.896 56.422C110.513 56.31 110.149 56.184 109.804 56.044C109.458 55.8947 109.15 55.7173 108.88 55.512C108.609 55.2973 108.399 55.036 108.25 54.728C108.1 54.42 108.026 54.0467 108.026 53.608C108.026 53.1133 108.156 52.6747 108.418 52.292C108.679 51.9093 109.048 51.6107 109.524 51.396C110.009 51.172 110.569 51.06 111.204 51.06C111.754 51.06 112.282 51.1533 112.786 51.34C113.299 51.5267 113.705 51.802 114.004 52.166C114.144 52.3153 114.214 52.4507 114.214 52.572C114.214 52.6653 114.167 52.7587 114.074 52.852C113.98 52.9453 113.878 52.992 113.766 52.992C113.672 52.992 113.593 52.9593 113.528 52.894C113.369 52.698 113.168 52.5253 112.926 52.376C112.683 52.2173 112.412 52.096 112.114 52.012C111.824 51.928 111.521 51.886 111.204 51.886C110.765 51.886 110.368 51.956 110.014 52.096C109.668 52.2267 109.393 52.418 109.188 52.67C108.992 52.922 108.894 53.2253 108.894 53.58C108.894 53.972 109.006 54.294 109.23 54.546C109.454 54.798 109.748 55.008 110.112 55.176C110.476 55.3347 110.863 55.484 111.274 55.624C111.675 55.736 112.058 55.8667 112.422 56.016C112.795 56.156 113.122 56.3333 113.402 56.548C113.691 56.7627 113.915 57.0333 114.074 57.36C114.242 57.6867 114.326 58.0973 114.326 58.592C114.326 59.068 114.19 59.4973 113.92 59.88C113.649 60.2627 113.276 60.566 112.8 60.79C112.333 61.014 111.782 61.1307 111.148 61.14ZM119.471 61.14C118.752 61.14 118.118 60.986 117.567 60.678C117.016 60.37 116.587 59.9407 116.279 59.39C115.971 58.8393 115.817 58.1953 115.817 57.458C115.817 56.6647 115.971 55.988 116.279 55.428C116.596 54.868 117.002 54.4387 117.497 54.14C118.001 53.832 118.533 53.678 119.093 53.678C119.504 53.678 119.9 53.7527 120.283 53.902C120.675 54.042 121.02 54.2567 121.319 54.546C121.627 54.826 121.87 55.1713 122.047 55.582C122.234 55.9927 122.336 56.4687 122.355 57.01C122.346 57.122 122.299 57.22 122.215 57.304C122.131 57.3787 122.033 57.416 121.921 57.416H116.307L116.139 56.66H121.655L121.473 56.828V56.548C121.436 56.1093 121.296 55.736 121.053 55.428C120.81 55.12 120.516 54.8867 120.171 54.728C119.826 54.5693 119.466 54.49 119.093 54.49C118.813 54.49 118.524 54.546 118.225 54.658C117.936 54.77 117.67 54.9473 117.427 55.19C117.194 55.4233 117.002 55.7267 116.853 56.1C116.704 56.464 116.629 56.898 116.629 57.402C116.629 57.9527 116.741 58.452 116.965 58.9C117.189 59.348 117.511 59.7027 117.931 59.964C118.36 60.2253 118.869 60.356 119.457 60.356C119.784 60.356 120.078 60.3093 120.339 60.216C120.6 60.1227 120.829 60.0013 121.025 59.852C121.221 59.6933 121.384 59.53 121.515 59.362C121.618 59.278 121.72 59.236 121.823 59.236C121.916 59.236 121.996 59.2733 122.061 59.348C122.136 59.4227 122.173 59.5067 122.173 59.6C122.173 59.712 122.126 59.81 122.033 59.894C121.753 60.23 121.389 60.524 120.941 60.776C120.493 61.0187 120.003 61.14 119.471 61.14ZM125.217 60.58C125.217 60.692 125.175 60.79 125.091 60.874C125.007 60.958 124.909 61 124.797 61C124.676 61 124.573 60.958 124.489 60.874C124.414 60.79 124.377 60.692 124.377 60.58V51.06C124.377 50.948 124.419 50.85 124.503 50.766C124.587 50.682 124.685 50.64 124.797 50.64C124.918 50.64 125.016 50.682 125.091 50.766C125.175 50.85 125.217 50.948 125.217 51.06V60.58ZM128.584 60.58C128.584 60.692 128.542 60.79 128.458 60.874C128.374 60.958 128.276 61 128.164 61C128.042 61 127.94 60.958 127.856 60.874C127.781 60.79 127.744 60.692 127.744 60.58V51.06C127.744 50.948 127.786 50.85 127.87 50.766C127.954 50.682 128.052 50.64 128.164 50.64C128.285 50.64 128.383 50.682 128.458 50.766C128.542 50.85 128.584 50.948 128.584 51.06V60.58ZM143.94 56.1C143.94 56.8373 143.824 57.514 143.59 58.13C143.366 58.7367 143.044 59.2687 142.624 59.726C142.204 60.174 141.705 60.524 141.126 60.776C140.557 61.0187 139.932 61.14 139.25 61.14C138.569 61.14 137.939 61.0187 137.36 60.776C136.791 60.524 136.296 60.174 135.876 59.726C135.456 59.2687 135.13 58.7367 134.896 58.13C134.672 57.514 134.56 56.8373 134.56 56.1C134.56 55.3627 134.672 54.6907 134.896 54.084C135.13 53.468 135.456 52.936 135.876 52.488C136.296 52.0307 136.791 51.6807 137.36 51.438C137.939 51.186 138.569 51.06 139.25 51.06C139.932 51.06 140.557 51.186 141.126 51.438C141.705 51.6807 142.204 52.0307 142.624 52.488C143.044 52.936 143.366 53.468 143.59 54.084C143.824 54.6907 143.94 55.3627 143.94 56.1ZM143.044 56.1C143.044 55.2693 142.881 54.5413 142.554 53.916C142.237 53.2813 141.794 52.7867 141.224 52.432C140.655 52.0773 139.997 51.9 139.25 51.9C138.513 51.9 137.855 52.0773 137.276 52.432C136.707 52.7867 136.259 53.2813 135.932 53.916C135.615 54.5413 135.456 55.2693 135.456 56.1C135.456 56.9307 135.615 57.6633 135.932 58.298C136.259 58.9233 136.707 59.4133 137.276 59.768C137.855 60.1227 138.513 60.3 139.25 60.3C139.997 60.3 140.655 60.1227 141.224 59.768C141.794 59.4133 142.237 58.9233 142.554 58.298C142.881 57.6633 143.044 56.9307 143.044 56.1ZM146.273 61C146.142 61 146.04 60.958 145.965 60.874C145.89 60.79 145.853 60.692 145.853 60.58V54.308C145.853 54.196 145.89 54.098 145.965 54.014C146.049 53.93 146.152 53.888 146.273 53.888C146.394 53.888 146.492 53.93 146.567 54.014C146.651 54.098 146.693 54.196 146.693 54.308V56.408L146.483 56.45C146.511 56.1233 146.59 55.8013 146.721 55.484C146.861 55.1573 147.048 54.8587 147.281 54.588C147.514 54.3173 147.79 54.098 148.107 53.93C148.434 53.762 148.798 53.678 149.199 53.678C149.367 53.678 149.53 53.7153 149.689 53.79C149.848 53.8553 149.927 53.9673 149.927 54.126C149.927 54.266 149.89 54.3733 149.815 54.448C149.74 54.5227 149.652 54.56 149.549 54.56C149.465 54.56 149.372 54.5367 149.269 54.49C149.176 54.4433 149.05 54.42 148.891 54.42C148.63 54.42 148.368 54.4993 148.107 54.658C147.846 54.8073 147.608 55.0127 147.393 55.274C147.178 55.5353 147.006 55.8293 146.875 56.156C146.754 56.4733 146.693 56.7953 146.693 57.122V60.58C146.693 60.692 146.651 60.79 146.567 60.874C146.483 60.958 146.385 61 146.273 61ZM156.034 61C155.894 61 155.777 60.958 155.684 60.874C155.6 60.79 155.558 60.692 155.558 60.58V51.62C155.558 51.508 155.6 51.41 155.684 51.326C155.768 51.242 155.866 51.2 155.978 51.2H159.758C160.29 51.2 160.766 51.3167 161.186 51.55C161.606 51.774 161.933 52.0867 162.166 52.488C162.409 52.8893 162.53 53.342 162.53 53.846C162.53 54.2567 162.455 54.6347 162.306 54.98C162.157 55.3253 161.947 55.6193 161.676 55.862C161.405 56.0953 161.102 56.268 160.766 56.38L160.276 56.226C160.621 56.254 160.943 56.366 161.242 56.562C161.541 56.7487 161.779 57.01 161.956 57.346C162.143 57.6727 162.241 58.0693 162.25 58.536C162.259 58.9373 162.278 59.25 162.306 59.474C162.343 59.698 162.395 59.866 162.46 59.978C162.525 60.09 162.609 60.1787 162.712 60.244C162.805 60.3 162.866 60.3793 162.894 60.482C162.931 60.5847 162.922 60.6827 162.866 60.776C162.829 60.8507 162.773 60.9067 162.698 60.944C162.633 60.972 162.563 60.986 162.488 60.986C162.413 60.986 162.339 60.9673 162.264 60.93C162.133 60.8553 161.998 60.7387 161.858 60.58C161.727 60.4213 161.615 60.188 161.522 59.88C161.438 59.572 161.396 59.1427 161.396 58.592C161.396 58.228 161.335 57.9293 161.214 57.696C161.102 57.4627 160.953 57.2853 160.766 57.164C160.589 57.0333 160.388 56.9447 160.164 56.898C159.949 56.842 159.744 56.814 159.548 56.814H156.286L156.44 56.618V60.58C156.44 60.692 156.403 60.79 156.328 60.874C156.253 60.958 156.155 61 156.034 61ZM156.286 56.044H159.8C160.117 56.016 160.416 55.9133 160.696 55.736C160.976 55.5493 161.2 55.2973 161.368 54.98C161.545 54.6627 161.634 54.294 161.634 53.874C161.634 53.342 161.452 52.9033 161.088 52.558C160.733 52.2033 160.267 52.026 159.688 52.026H156.342L156.44 51.83V56.24L156.286 56.044ZM168.032 61.14C167.314 61.14 166.679 60.986 166.128 60.678C165.578 60.37 165.148 59.9407 164.84 59.39C164.532 58.8393 164.378 58.1953 164.378 57.458C164.378 56.6647 164.532 55.988 164.84 55.428C165.158 54.868 165.564 54.4387 166.058 54.14C166.562 53.832 167.094 53.678 167.654 53.678C168.065 53.678 168.462 53.7527 168.844 53.902C169.236 54.042 169.582 54.2567 169.88 54.546C170.188 54.826 170.431 55.1713 170.608 55.582C170.795 55.9927 170.898 56.4687 170.916 57.01C170.907 57.122 170.86 57.22 170.776 57.304C170.692 57.3787 170.594 57.416 170.482 57.416H164.868L164.7 56.66H170.216L170.034 56.828V56.548C169.997 56.1093 169.857 55.736 169.614 55.428C169.372 55.12 169.078 54.8867 168.732 54.728C168.387 54.5693 168.028 54.49 167.654 54.49C167.374 54.49 167.085 54.546 166.786 54.658C166.497 54.77 166.231 54.9473 165.988 55.19C165.755 55.4233 165.564 55.7267 165.414 56.1C165.265 56.464 165.19 56.898 165.19 57.402C165.19 57.9527 165.302 58.452 165.526 58.9C165.75 59.348 166.072 59.7027 166.492 59.964C166.922 60.2253 167.43 60.356 168.018 60.356C168.345 60.356 168.639 60.3093 168.9 60.216C169.162 60.1227 169.39 60.0013 169.586 59.852C169.782 59.6933 169.946 59.53 170.076 59.362C170.179 59.278 170.282 59.236 170.384 59.236C170.478 59.236 170.557 59.2733 170.622 59.348C170.697 59.4227 170.734 59.5067 170.734 59.6C170.734 59.712 170.688 59.81 170.594 59.894C170.314 60.23 169.95 60.524 169.502 60.776C169.054 61.0187 168.564 61.14 168.032 61.14ZM176.228 53.678C176.844 53.678 177.334 53.804 177.698 54.056C178.072 54.2987 178.338 54.6347 178.496 55.064C178.664 55.484 178.748 55.9507 178.748 56.464V60.58C178.748 60.692 178.706 60.79 178.622 60.874C178.538 60.958 178.44 61 178.328 61C178.198 61 178.095 60.958 178.02 60.874C177.946 60.79 177.908 60.692 177.908 60.58V56.506C177.908 56.1327 177.848 55.792 177.726 55.484C177.605 55.176 177.404 54.9287 177.124 54.742C176.854 54.5553 176.494 54.462 176.046 54.462C175.645 54.462 175.262 54.5553 174.898 54.742C174.544 54.9287 174.254 55.176 174.03 55.484C173.806 55.792 173.694 56.1327 173.694 56.506V60.58C173.694 60.692 173.652 60.79 173.568 60.874C173.484 60.958 173.386 61 173.274 61C173.144 61 173.041 60.958 172.966 60.874C172.892 60.79 172.854 60.692 172.854 60.58V54.308C172.854 54.196 172.892 54.098 172.966 54.014C173.05 53.93 173.153 53.888 173.274 53.888C173.396 53.888 173.494 53.93 173.568 54.014C173.652 54.098 173.694 54.196 173.694 54.308V55.484L173.372 55.988C173.391 55.6893 173.484 55.4047 173.652 55.134C173.83 54.854 174.054 54.6067 174.324 54.392C174.595 54.168 174.894 53.9953 175.22 53.874C175.556 53.7433 175.892 53.678 176.228 53.678ZM180.626 53.874H183.888C184 53.874 184.094 53.916 184.168 54C184.243 54.0747 184.28 54.168 184.28 54.28C184.28 54.3827 184.243 54.4713 184.168 54.546C184.094 54.6207 184 54.658 183.888 54.658H180.626C180.514 54.658 180.416 54.6207 180.332 54.546C180.258 54.462 180.22 54.3687 180.22 54.266C180.22 54.154 180.258 54.0607 180.332 53.986C180.416 53.9113 180.514 53.874 180.626 53.874ZM182.068 51.9C182.19 51.9 182.288 51.942 182.362 52.026C182.446 52.11 182.488 52.208 182.488 52.32V59.348C182.488 59.6093 182.521 59.8053 182.586 59.936C182.661 60.0667 182.754 60.1553 182.866 60.202C182.978 60.2393 183.09 60.258 183.202 60.258C183.277 60.258 183.342 60.2487 183.398 60.23C183.464 60.202 183.534 60.188 183.608 60.188C183.692 60.188 183.762 60.2207 183.818 60.286C183.884 60.3513 183.916 60.4353 183.916 60.538C183.916 60.6687 183.842 60.7807 183.692 60.874C183.543 60.958 183.366 61 183.16 61C183.076 61 182.95 60.9953 182.782 60.986C182.614 60.9673 182.442 60.916 182.264 60.832C182.087 60.7387 181.938 60.58 181.816 60.356C181.704 60.132 181.648 59.81 181.648 59.39V52.32C181.648 52.208 181.686 52.11 181.76 52.026C181.844 51.942 181.947 51.9 182.068 51.9Z" fill="#222222"/>
<path d="M79.306 36C78.37 36 77.65 35.748 77.146 35.244C76.642 34.74 76.39 34.02 76.39 33.084V13.536C76.39 12.6 76.642 11.88 77.146 11.376C77.65 10.872 78.37 10.62 79.306 10.62H86.326C90.67 10.62 94.018 11.724 96.37 13.932C98.746 16.116 99.934 19.236 99.934 23.292C99.934 25.332 99.622 27.144 98.998 28.728C98.398 30.288 97.522 31.608 96.37 32.688C95.218 33.768 93.802 34.596 92.122 35.172C90.442 35.724 88.51 36 86.326 36H79.306ZM81.97 31.428H86.002C87.37 31.428 88.558 31.26 89.566 30.924C90.574 30.588 91.414 30.084 92.086 29.412C92.758 28.74 93.262 27.9 93.598 26.892C93.934 25.86 94.102 24.66 94.102 23.292C94.102 20.556 93.418 18.528 92.05 17.208C90.706 15.864 88.69 15.192 86.002 15.192H81.97V31.428ZM111.397 36.396C109.501 36.396 107.845 36.024 106.429 35.28C105.037 34.536 103.957 33.468 103.189 32.076C102.421 30.684 102.037 29.04 102.037 27.144C102.037 25.728 102.253 24.456 102.685 23.328C103.117 22.2 103.741 21.24 104.557 20.448C105.397 19.632 106.393 19.02 107.545 18.612C108.697 18.18 109.981 17.964 111.397 17.964C113.293 17.964 114.937 18.336 116.329 19.08C117.745 19.824 118.837 20.88 119.605 22.248C120.397 23.616 120.793 25.248 120.793 27.144C120.793 28.584 120.565 29.868 120.109 30.996C119.677 32.124 119.053 33.096 118.237 33.912C117.421 34.728 116.425 35.352 115.249 35.784C114.097 36.192 112.813 36.396 111.397 36.396ZM111.397 32.328C112.189 32.328 112.873 32.136 113.449 31.752C114.025 31.368 114.481 30.804 114.817 30.06C115.153 29.292 115.321 28.32 115.321 27.144C115.321 25.392 114.961 24.108 114.241 23.292C113.521 22.452 112.573 22.032 111.397 22.032C110.629 22.032 109.945 22.212 109.345 22.572C108.769 22.932 108.313 23.496 107.977 24.264C107.665 25.008 107.509 25.968 107.509 27.144C107.509 28.896 107.869 30.204 108.589 31.068C109.309 31.908 110.245 32.328 111.397 32.328ZM126.008 36.324C125.096 36.324 124.4 36.084 123.92 35.604C123.44 35.124 123.2 34.44 123.2 33.552V20.772C123.2 19.884 123.428 19.212 123.884 18.756C124.364 18.276 125.024 18.036 125.864 18.036C126.728 18.036 127.388 18.276 127.844 18.756C128.3 19.212 128.528 19.884 128.528 20.772V22.644H128.168C128.456 21.204 129.092 20.088 130.076 19.296C131.06 18.504 132.332 18.06 133.892 17.964C134.492 17.916 134.948 18.072 135.26 18.432C135.596 18.768 135.776 19.332 135.8 20.124C135.848 20.868 135.692 21.456 135.332 21.888C134.996 22.32 134.42 22.584 133.604 22.68L132.776 22.752C131.408 22.872 130.388 23.268 129.716 23.94C129.068 24.612 128.744 25.584 128.744 26.856V33.552C128.744 34.44 128.504 35.124 128.024 35.604C127.568 36.084 126.896 36.324 126.008 36.324ZM146 36.396C143.912 36.396 142.112 36.024 140.6 35.28C139.112 34.512 137.96 33.444 137.144 32.076C136.352 30.684 135.956 29.052 135.956 27.18C135.956 25.356 136.34 23.76 137.108 22.392C137.876 21 138.944 19.92 140.312 19.152C141.704 18.36 143.276 17.964 145.028 17.964C146.3 17.964 147.452 18.18 148.484 18.612C149.516 19.02 150.404 19.62 151.148 20.412C151.892 21.18 152.456 22.128 152.84 23.256C153.224 24.36 153.416 25.596 153.416 26.964C153.416 27.42 153.272 27.768 152.984 28.008C152.696 28.224 152.276 28.332 151.724 28.332H140.42V25.524H149.492L148.916 26.028C148.916 25.044 148.772 24.228 148.484 23.58C148.196 22.908 147.776 22.404 147.224 22.068C146.696 21.732 146.036 21.564 145.244 21.564C144.356 21.564 143.6 21.768 142.976 22.176C142.352 22.584 141.872 23.172 141.536 23.94C141.2 24.708 141.032 25.632 141.032 26.712V27C141.032 28.824 141.452 30.168 142.292 31.032C143.156 31.896 144.428 32.328 146.108 32.328C146.684 32.328 147.344 32.256 148.088 32.112C148.832 31.968 149.528 31.74 150.176 31.428C150.728 31.164 151.22 31.08 151.652 31.176C152.084 31.248 152.42 31.44 152.66 31.752C152.9 32.064 153.032 32.424 153.056 32.832C153.104 33.24 153.02 33.648 152.804 34.056C152.588 34.44 152.228 34.764 151.724 35.028C150.908 35.484 149.984 35.82 148.952 36.036C147.944 36.276 146.96 36.396 146 36.396ZM158.485 36.324C157.597 36.324 156.913 36.084 156.433 35.604C155.977 35.124 155.749 34.44 155.749 33.552V20.772C155.749 19.884 155.977 19.212 156.433 18.756C156.913 18.276 157.573 18.036 158.413 18.036C159.277 18.036 159.937 18.276 160.393 18.756C160.849 19.212 161.077 19.884 161.077 20.772V23.076L160.681 21.636C161.161 20.532 161.905 19.644 162.913 18.972C163.921 18.3 165.109 17.964 166.477 17.964C167.845 17.964 168.985 18.288 169.897 18.936C170.809 19.584 171.457 20.58 171.841 21.924H171.337C171.865 20.7 172.669 19.74 173.749 19.044C174.853 18.324 176.113 17.964 177.529 17.964C178.897 17.964 180.013 18.24 180.877 18.792C181.765 19.32 182.425 20.136 182.857 21.24C183.289 22.32 183.505 23.7 183.505 25.38V33.552C183.505 34.44 183.265 35.124 182.785 35.604C182.329 36.084 181.669 36.324 180.805 36.324C179.917 36.324 179.233 36.084 178.753 35.604C178.297 35.124 178.069 34.44 178.069 33.552V25.56C178.069 24.384 177.877 23.532 177.493 23.004C177.133 22.452 176.509 22.176 175.621 22.176C174.589 22.176 173.785 22.536 173.209 23.256C172.633 23.976 172.345 24.996 172.345 26.316V33.552C172.345 34.44 172.105 35.124 171.625 35.604C171.169 36.084 170.509 36.324 169.645 36.324C168.781 36.324 168.109 36.084 167.629 35.604C167.149 35.124 166.909 34.44 166.909 33.552V25.56C166.909 24.384 166.717 23.532 166.333 23.004C165.973 22.452 165.349 22.176 164.461 22.176C163.429 22.176 162.625 22.536 162.049 23.256C161.473 23.976 161.185 24.996 161.185 26.316V33.552C161.185 35.4 160.285 36.324 158.485 36.324ZM189.506 36.288C188.618 36.288 187.934 36.036 187.454 35.532C186.998 35.004 186.77 34.272 186.77 33.336V21.024C186.77 20.064 186.998 19.332 187.454 18.828C187.934 18.3 188.618 18.036 189.506 18.036C190.37 18.036 191.03 18.3 191.486 18.828C191.966 19.332 192.206 20.064 192.206 21.024V33.336C192.206 34.272 191.978 35.004 191.522 35.532C191.066 36.036 190.394 36.288 189.506 36.288ZM189.506 15.084C188.498 15.084 187.718 14.856 187.166 14.4C186.638 13.92 186.374 13.248 186.374 12.384C186.374 11.496 186.638 10.824 187.166 10.368C187.718 9.888 188.498 9.648 189.506 9.648C190.514 9.648 191.282 9.888 191.81 10.368C192.338 10.824 192.602 11.496 192.602 12.384C192.602 13.248 192.338 13.92 191.81 14.4C191.282 14.856 190.514 15.084 189.506 15.084Z" fill="#222222"/>
<defs>
<filter id="filter0_d_4_1027" x="0" y="6.32397" width="61.4277" height="62.8331" filterUnits="userSpaceOnUse" color-interpolation-filters="sRGB">
<feFlood flood-opacity="0" result="BackgroundImageFix"/>
<feColorMatrix in="SourceAlpha" type="matrix" values="0 0 0 0 0 0 0 0 0 0 0 0 0 0 0 0 0 0 127 0" result="hardAlpha"/>
<feOffset dy="4"/>
<feGaussianBlur stdDeviation="2"/>
<feComposite in2="hardAlpha" operator="out"/>
<feColorMatrix type="matrix" values="0 0 0 0 0 0 0 0 0 0 0 0 0 0 0 0 0 0 0.25 0"/>
<feBlend mode="normal" in2="BackgroundImageFix" result="effect1_dropShadow_4_1027"/>
<feBlend mode="normal" in="SourceGraphic" in2="effect1_dropShadow_4_1027" result="shape"/>
</filter>
</defs>
</svg>
